<svg xmlns="http://www.w3.org/2000/svg" viewBox="0 0 64 64">
  <defs>
    <linearGradient id="cw-gold" x1="0%" y1="0%" x2="100%" y2="100%">
      <stop offset="0%" stop-color="#dbc28f" />
      <stop offset="100%" stop-color="#b88a47" />
    </linearGradient>
  </defs>
  <rect width="64" height="64" rx="18" fill="#111111" />
  <path d="M28.5 20.38A12.4 12.4 0 0 0 20 17c-8.01 0-14.5 6.49-14.5 14.5S11.99 46 20 46c3.11 0 6.1-.99 8.57-2.82v-7.41A9.18 9.18 0 0 1 20 41.46a9.95 9.95 0 1 1 0-19.91c3.29 0 6.24 1.59 8.06 4.04l3.65-5.21A14.53 14.53 0 0 0 28.5 20.38Z" fill="url(#cw-gold)" />
  <path d="M35.28 19 39.1 34.32 43.57 24h3.16l4.5 10.32L55.04 19H60L53 45h-3.8L45.1 35.44 40.94 45h-3.8L30.28 19h5Z" fill="#f8fafc" />
</svg>
